<mxfile host="Electron" modified="2024-02-15T13:15:16.149Z" agent="Mozilla/5.0 (Macintosh; Intel Mac OS X 10_15_7) AppleWebKit/537.36 (KHTML, like Gecko) draw.io/23.0.2 Chrome/120.0.6099.109 Electron/28.1.0 Safari/537.36" etag="Vc7W3Dx77ieV5szVuuwu" version="23.0.2" type="device">
  <diagram name="Page-1" id="6gULVhWcurzz5zKnDaAR">
    <mxGraphModel dx="1653" dy="997" grid="1" gridSize="10" guides="1" tooltips="1" connect="1" arrows="1" fold="1" page="1" pageScale="1" pageWidth="1169" pageHeight="827" math="0" shadow="0">
      <root>
        <mxCell id="0" />
        <mxCell id="1" parent="0" />
        <UserObject label="&lt;font style=&quot;&quot;&gt;&lt;span style=&quot;font-size: 20px;&quot;&gt;Issuer&lt;/span&gt;&lt;/font&gt;" linkTarget="_blank" id="r7VOtmBWi9sTdI5Oyx6i-1">
          <mxCell style="rounded=1;whiteSpace=wrap;html=1;fontSize=16;labelBackgroundColor=none;fillColor=#09555B;strokeColor=#FFFFFF;fontColor=#EEEEEE;" parent="1" vertex="1">
            <mxGeometry x="210" y="403" width="125.25" height="58" as="geometry" />
          </mxCell>
        </UserObject>
        <UserObject label="&lt;font style=&quot;&quot;&gt;&lt;span style=&quot;font-size: 20px;&quot;&gt;Registry&lt;/span&gt;&lt;/font&gt;" linkTarget="_blank" id="WkVDoU_EPi6P_C-XghKi-11">
          <mxCell style="rounded=1;whiteSpace=wrap;html=1;fontSize=16;labelBackgroundColor=none;fillColor=#09555B;strokeColor=#FFFFFF;fontColor=#EEEEEE;" parent="1" vertex="1">
            <mxGeometry x="530" y="593" width="125.25" height="58" as="geometry" />
          </mxCell>
        </UserObject>
        <mxCell id="WkVDoU_EPi6P_C-XghKi-12" value="" style="endArrow=classic;html=1;rounded=0;fontSize=12;startSize=8;endSize=8;curved=1;exitX=0.75;exitY=0;exitDx=0;exitDy=0;entryX=0;entryY=1;entryDx=0;entryDy=0;" parent="1" source="r7VOtmBWi9sTdI5Oyx6i-1" target="WkVDoU_EPi6P_C-XghKi-3" edge="1">
          <mxGeometry width="50" height="50" relative="1" as="geometry">
            <mxPoint x="430" y="490" as="sourcePoint" />
            <mxPoint x="480" y="440" as="targetPoint" />
          </mxGeometry>
        </mxCell>
        <mxCell id="WkVDoU_EPi6P_C-XghKi-13" value="&amp;nbsp;Issue&lt;br&gt;&amp;nbsp;&lt;font style=&quot;font-size: 12px;&quot;&gt;exactly once&lt;/font&gt;&amp;nbsp;&amp;nbsp;" style="edgeLabel;html=1;align=center;verticalAlign=middle;resizable=0;points=[];fontSize=16;" parent="WkVDoU_EPi6P_C-XghKi-12" vertex="1" connectable="0">
          <mxGeometry x="-0.0577" y="4" relative="1" as="geometry">
            <mxPoint as="offset" />
          </mxGeometry>
        </mxCell>
        <mxCell id="WkVDoU_EPi6P_C-XghKi-14" value="" style="endArrow=classic;html=1;rounded=0;fontSize=12;startSize=8;endSize=8;curved=1;exitX=1;exitY=0.75;exitDx=0;exitDy=0;entryX=0;entryY=0.25;entryDx=0;entryDy=0;" parent="1" source="WkVDoU_EPi6P_C-XghKi-4" target="WkVDoU_EPi6P_C-XghKi-6" edge="1">
          <mxGeometry width="50" height="50" relative="1" as="geometry">
            <mxPoint x="430" y="490" as="sourcePoint" />
            <mxPoint x="480" y="440" as="targetPoint" />
          </mxGeometry>
        </mxCell>
        <mxCell id="WkVDoU_EPi6P_C-XghKi-15" value="&amp;nbsp;Present&amp;nbsp;&lt;br&gt;&lt;font style=&quot;font-size: 12px;&quot;&gt;&amp;nbsp;repeatable&amp;nbsp;&lt;/font&gt;" style="edgeLabel;html=1;align=center;verticalAlign=middle;resizable=0;points=[];fontSize=16;" parent="WkVDoU_EPi6P_C-XghKi-14" vertex="1" connectable="0">
          <mxGeometry x="0.0141" relative="1" as="geometry">
            <mxPoint as="offset" />
          </mxGeometry>
        </mxCell>
        <mxCell id="WkVDoU_EPi6P_C-XghKi-16" value="" style="endArrow=classic;html=1;rounded=0;fontSize=12;startSize=8;endSize=8;curved=1;entryX=1;entryY=0.5;entryDx=0;entryDy=0;exitX=0;exitY=0.5;exitDx=0;exitDy=0;" parent="1" source="WkVDoU_EPi6P_C-XghKi-6" target="r7VOtmBWi9sTdI5Oyx6i-1" edge="1">
          <mxGeometry width="50" height="50" relative="1" as="geometry">
            <mxPoint x="800" y="390" as="sourcePoint" />
            <mxPoint x="480" y="440" as="targetPoint" />
          </mxGeometry>
        </mxCell>
        <mxCell id="WkVDoU_EPi6P_C-XghKi-17" value="&amp;nbsp;Check Status&amp;nbsp;&lt;br&gt;&amp;nbsp;&lt;font style=&quot;font-size: 12px;&quot;&gt;might NOT preserve privacy&amp;nbsp;&lt;br&gt;repeatable&amp;nbsp;&lt;/font&gt;" style="edgeLabel;html=1;align=center;verticalAlign=middle;resizable=0;points=[];fontSize=16;" parent="WkVDoU_EPi6P_C-XghKi-16" vertex="1" connectable="0">
          <mxGeometry x="-0.0144" y="2" relative="1" as="geometry">
            <mxPoint x="1" y="-9" as="offset" />
          </mxGeometry>
        </mxCell>
        <mxCell id="WkVDoU_EPi6P_C-XghKi-18" value="" style="endArrow=classic;html=1;rounded=0;fontSize=12;startSize=8;endSize=8;curved=1;exitX=0.75;exitY=1;exitDx=0;exitDy=0;entryX=0;entryY=0.5;entryDx=0;entryDy=0;dashed=1;" parent="1" source="r7VOtmBWi9sTdI5Oyx6i-1" target="WkVDoU_EPi6P_C-XghKi-11" edge="1">
          <mxGeometry width="50" height="50" relative="1" as="geometry">
            <mxPoint x="430" y="490" as="sourcePoint" />
            <mxPoint x="480" y="440" as="targetPoint" />
          </mxGeometry>
        </mxCell>
        <mxCell id="WkVDoU_EPi6P_C-XghKi-19" value="&amp;nbsp;Revoke&amp;nbsp;&lt;br&gt;&amp;nbsp;&lt;font style=&quot;font-size: 12px;&quot;&gt;up to once&lt;/font&gt;&amp;nbsp;" style="edgeLabel;html=1;align=center;verticalAlign=middle;resizable=0;points=[];fontSize=16;" parent="WkVDoU_EPi6P_C-XghKi-18" vertex="1" connectable="0">
          <mxGeometry x="-0.0007" y="-2" relative="1" as="geometry">
            <mxPoint as="offset" />
          </mxGeometry>
        </mxCell>
        <mxCell id="WkVDoU_EPi6P_C-XghKi-20" value="" style="curved=1;endArrow=classic;html=1;rounded=0;fontSize=12;startSize=8;endSize=8;exitX=0;exitY=0.75;exitDx=0;exitDy=0;entryX=0.5;entryY=0;entryDx=0;entryDy=0;" parent="1" source="WkVDoU_EPi6P_C-XghKi-6" target="WkVDoU_EPi6P_C-XghKi-11" edge="1">
          <mxGeometry width="50" height="50" relative="1" as="geometry">
            <mxPoint x="430" y="490" as="sourcePoint" />
            <mxPoint x="480" y="440" as="targetPoint" />
            <Array as="points">
              <mxPoint x="690" y="450" />
            </Array>
          </mxGeometry>
        </mxCell>
        <mxCell id="WkVDoU_EPi6P_C-XghKi-21" value="&amp;nbsp;Check Status&amp;nbsp;&lt;br&gt;&amp;nbsp;&lt;font style=&quot;font-size: 12px;&quot;&gt;MIGHT preserve privacy&amp;nbsp;&lt;br&gt;repeatable&lt;/font&gt;" style="edgeLabel;html=1;align=center;verticalAlign=middle;resizable=0;points=[];fontSize=16;" parent="WkVDoU_EPi6P_C-XghKi-20" vertex="1" connectable="0">
          <mxGeometry x="0.0976" y="18" relative="1" as="geometry">
            <mxPoint x="-1" as="offset" />
          </mxGeometry>
        </mxCell>
        <mxCell id="WkVDoU_EPi6P_C-XghKi-23" value="" style="curved=1;endArrow=classic;html=1;rounded=0;fontSize=12;startSize=8;endSize=8;exitX=0.25;exitY=1;exitDx=0;exitDy=0;entryX=1;entryY=0.5;entryDx=0;entryDy=0;" parent="1" source="WkVDoU_EPi6P_C-XghKi-9" target="WkVDoU_EPi6P_C-XghKi-11" edge="1">
          <mxGeometry width="50" height="50" relative="1" as="geometry">
            <mxPoint x="430" y="490" as="sourcePoint" />
            <mxPoint x="480" y="440" as="targetPoint" />
            <Array as="points">
              <mxPoint x="820" y="550" />
              <mxPoint x="740" y="600" />
            </Array>
          </mxGeometry>
        </mxCell>
        <mxCell id="WkVDoU_EPi6P_C-XghKi-24" value="&amp;nbsp;Verify&amp;nbsp;&lt;br&gt;&amp;nbsp;&lt;font style=&quot;font-size: 12px;&quot;&gt;repeatable&lt;/font&gt;&amp;nbsp;" style="edgeLabel;html=1;align=center;verticalAlign=middle;resizable=0;points=[];fontSize=16;" parent="WkVDoU_EPi6P_C-XghKi-23" vertex="1" connectable="0">
          <mxGeometry x="-0.0198" y="-16" relative="1" as="geometry">
            <mxPoint x="6" y="5" as="offset" />
          </mxGeometry>
        </mxCell>
        <mxCell id="WkVDoU_EPi6P_C-XghKi-30" value="" style="shape=lineEllipse;perimeter=ellipsePerimeter;whiteSpace=wrap;html=1;backgroundOutline=1;fontSize=16;rotation=-35;strokeWidth=6;strokeColor=#f41010;fillColor=none;" parent="1" vertex="1">
          <mxGeometry x="320" y="130" width="32.63" height="32.63" as="geometry" />
        </mxCell>
        <mxCell id="WkVDoU_EPi6P_C-XghKi-31" value="" style="endArrow=classic;html=1;rounded=0;fontSize=12;startSize=8;endSize=8;curved=1;entryX=1;entryY=1;entryDx=0;entryDy=0;exitX=0;exitY=0.5;exitDx=0;exitDy=0;targetPerimeterSpacing=-6;dashed=1;" parent="1" source="WkVDoU_EPi6P_C-XghKi-1" target="WkVDoU_EPi6P_C-XghKi-30" edge="1">
          <mxGeometry width="50" height="50" relative="1" as="geometry">
            <mxPoint x="330" y="269" as="sourcePoint" />
            <mxPoint x="380" y="219" as="targetPoint" />
          </mxGeometry>
        </mxCell>
        <mxCell id="WkVDoU_EPi6P_C-XghKi-32" value="&amp;nbsp;Delete&amp;nbsp;&lt;br&gt;&amp;nbsp;&lt;font style=&quot;font-size: 12px;&quot;&gt;up to once per Holder&lt;/font&gt;&amp;nbsp;" style="edgeLabel;html=1;align=center;verticalAlign=middle;resizable=0;points=[];fontSize=16;" parent="WkVDoU_EPi6P_C-XghKi-31" vertex="1" connectable="0">
          <mxGeometry x="0.0517" y="1" relative="1" as="geometry">
            <mxPoint as="offset" />
          </mxGeometry>
        </mxCell>
        <mxCell id="WeRIz-Bh-gNBJ7O2u5bh-2" value="" style="group" parent="1" vertex="1" connectable="0">
          <mxGeometry x="810" y="388" width="155.25" height="88" as="geometry" />
        </mxCell>
        <UserObject label="&lt;font style=&quot;&quot;&gt;&lt;span style=&quot;font-size: 20px;&quot;&gt;Verifiers&lt;/span&gt;&lt;/font&gt;" linkTarget="_blank" id="WkVDoU_EPi6P_C-XghKi-6">
          <mxCell style="rounded=1;whiteSpace=wrap;html=1;fontSize=16;labelBackgroundColor=none;fillColor=#09555B;strokeColor=#FFFFFF;fontColor=#EEEEEE;" parent="WeRIz-Bh-gNBJ7O2u5bh-2" vertex="1">
            <mxGeometry width="125.25" height="58" as="geometry" />
          </mxCell>
        </UserObject>
        <UserObject label="&lt;font style=&quot;&quot;&gt;&lt;span style=&quot;font-size: 20px;&quot;&gt;Verifiers&lt;/span&gt;&lt;/font&gt;" linkTarget="_blank" id="WkVDoU_EPi6P_C-XghKi-7">
          <mxCell style="rounded=1;whiteSpace=wrap;html=1;fontSize=16;labelBackgroundColor=none;fillColor=#09555B;strokeColor=#FFFFFF;fontColor=#EEEEEE;" parent="WeRIz-Bh-gNBJ7O2u5bh-2" vertex="1">
            <mxGeometry x="10" y="10" width="125.25" height="58" as="geometry" />
          </mxCell>
        </UserObject>
        <UserObject label="&lt;font style=&quot;&quot;&gt;&lt;span style=&quot;font-size: 20px;&quot;&gt;Verifiers&lt;/span&gt;&lt;/font&gt;" linkTarget="_blank" id="WkVDoU_EPi6P_C-XghKi-8">
          <mxCell style="rounded=1;whiteSpace=wrap;html=1;fontSize=16;labelBackgroundColor=none;fillColor=#09555B;strokeColor=#FFFFFF;fontColor=#EEEEEE;" parent="WeRIz-Bh-gNBJ7O2u5bh-2" vertex="1">
            <mxGeometry x="20" y="20" width="125.25" height="58" as="geometry" />
          </mxCell>
        </UserObject>
        <UserObject label="&lt;font style=&quot;&quot;&gt;&lt;span style=&quot;font-size: 20px;&quot;&gt;Verifiers&lt;/span&gt;&lt;/font&gt;" linkTarget="_blank" id="WkVDoU_EPi6P_C-XghKi-9">
          <mxCell style="rounded=1;whiteSpace=wrap;html=1;fontSize=16;labelBackgroundColor=none;fillColor=#09555B;strokeColor=#FFFFFF;fontColor=#EEEEEE;" parent="WeRIz-Bh-gNBJ7O2u5bh-2" vertex="1">
            <mxGeometry x="30" y="30" width="125.25" height="58" as="geometry" />
          </mxCell>
        </UserObject>
        <mxCell id="WkVDoU_EPi6P_C-XghKi-28" value="" style="curved=1;endArrow=classic;html=1;rounded=0;fontSize=12;startSize=8;endSize=8;exitX=0.5;exitY=0;exitDx=0;exitDy=0;entryX=1;entryY=0;entryDx=0;entryDy=0;" parent="WeRIz-Bh-gNBJ7O2u5bh-2" source="WkVDoU_EPi6P_C-XghKi-6" target="WkVDoU_EPi6P_C-XghKi-9" edge="1">
          <mxGeometry width="50" height="50" relative="1" as="geometry">
            <mxPoint x="60" y="-18" as="sourcePoint" />
            <mxPoint x="260" y="22" as="targetPoint" />
            <Array as="points">
              <mxPoint x="110" y="-78" />
              <mxPoint x="170" y="-98" />
              <mxPoint x="190" y="-28" />
            </Array>
          </mxGeometry>
        </mxCell>
        <mxCell id="WkVDoU_EPi6P_C-XghKi-29" value="&amp;nbsp;Validate&amp;nbsp;&lt;br&gt;&lt;font style=&quot;font-size: 12px;&quot;&gt;&amp;nbsp;repeatable&amp;nbsp;&lt;/font&gt;" style="edgeLabel;html=1;align=center;verticalAlign=middle;resizable=0;points=[];fontSize=16;" parent="WkVDoU_EPi6P_C-XghKi-28" vertex="1" connectable="0">
          <mxGeometry x="0.3015" y="-2" relative="1" as="geometry">
            <mxPoint x="2" y="7" as="offset" />
          </mxGeometry>
        </mxCell>
        <mxCell id="WeRIz-Bh-gNBJ7O2u5bh-3" value="" style="group" parent="1" vertex="1" connectable="0">
          <mxGeometry x="515" y="200" width="155.25" height="88" as="geometry" />
        </mxCell>
        <UserObject label="&lt;font style=&quot;&quot;&gt;&lt;span style=&quot;font-size: 20px;&quot;&gt;Holders&lt;/span&gt;&lt;/font&gt;" linkTarget="_blank" id="WkVDoU_EPi6P_C-XghKi-1">
          <mxCell style="rounded=1;whiteSpace=wrap;html=1;fontSize=16;labelBackgroundColor=none;fillColor=#09555B;strokeColor=#FFFFFF;fontColor=#EEEEEE;" parent="WeRIz-Bh-gNBJ7O2u5bh-3" vertex="1">
            <mxGeometry width="125.25" height="58" as="geometry" />
          </mxCell>
        </UserObject>
        <UserObject label="&lt;font style=&quot;&quot;&gt;&lt;span style=&quot;font-size: 20px;&quot;&gt;Holders&lt;/span&gt;&lt;/font&gt;" linkTarget="_blank" id="WkVDoU_EPi6P_C-XghKi-2">
          <mxCell style="rounded=1;whiteSpace=wrap;html=1;fontSize=16;labelBackgroundColor=none;fillColor=#09555B;strokeColor=#FFFFFF;fontColor=#EEEEEE;" parent="WeRIz-Bh-gNBJ7O2u5bh-3" vertex="1">
            <mxGeometry x="10" y="10" width="125.25" height="58" as="geometry" />
          </mxCell>
        </UserObject>
        <UserObject label="&lt;font style=&quot;&quot;&gt;&lt;span style=&quot;font-size: 20px;&quot;&gt;Holders&lt;/span&gt;&lt;/font&gt;" linkTarget="_blank" id="WkVDoU_EPi6P_C-XghKi-3">
          <mxCell style="rounded=1;whiteSpace=wrap;html=1;fontSize=16;labelBackgroundColor=none;fillColor=#09555B;strokeColor=#FFFFFF;fontColor=#EEEEEE;" parent="WeRIz-Bh-gNBJ7O2u5bh-3" vertex="1">
            <mxGeometry x="20" y="20" width="125.25" height="58" as="geometry" />
          </mxCell>
        </UserObject>
        <UserObject label="&lt;font style=&quot;&quot;&gt;&lt;span style=&quot;font-size: 20px;&quot;&gt;Holders&lt;/span&gt;&lt;/font&gt;" linkTarget="_blank" id="WkVDoU_EPi6P_C-XghKi-4">
          <mxCell style="rounded=1;whiteSpace=wrap;html=1;fontSize=16;labelBackgroundColor=none;fillColor=#09555B;strokeColor=#FFFFFF;fontColor=#EEEEEE;" parent="WeRIz-Bh-gNBJ7O2u5bh-3" vertex="1">
            <mxGeometry x="30" y="30" width="125.25" height="58" as="geometry" />
          </mxCell>
        </UserObject>
        <mxCell id="WkVDoU_EPi6P_C-XghKi-25" value="" style="curved=1;endArrow=classic;html=1;rounded=0;fontSize=12;startSize=8;endSize=8;exitX=0.5;exitY=0;exitDx=0;exitDy=0;entryX=1;entryY=0;entryDx=0;entryDy=0;" parent="WeRIz-Bh-gNBJ7O2u5bh-3" source="WkVDoU_EPi6P_C-XghKi-1" target="WkVDoU_EPi6P_C-XghKi-4" edge="1">
          <mxGeometry width="50" height="50" relative="1" as="geometry">
            <mxPoint x="35" y="-40" as="sourcePoint" />
            <mxPoint x="215" y="10" as="targetPoint" />
            <Array as="points">
              <mxPoint x="105" y="-90" />
              <mxPoint x="155" y="-100" />
              <mxPoint x="195" y="-60" />
            </Array>
          </mxGeometry>
        </mxCell>
        <mxCell id="WkVDoU_EPi6P_C-XghKi-27" value="&amp;nbsp;Transfer&lt;br&gt;&amp;nbsp;&lt;font style=&quot;font-size: 12px;&quot;&gt;repeatable&lt;/font&gt;&amp;nbsp;" style="edgeLabel;html=1;align=center;verticalAlign=middle;resizable=0;points=[];fontSize=16;" parent="WkVDoU_EPi6P_C-XghKi-25" vertex="1" connectable="0">
          <mxGeometry x="0.335" y="-1" relative="1" as="geometry">
            <mxPoint x="-17" y="1" as="offset" />
          </mxGeometry>
        </mxCell>
      </root>
    </mxGraphModel>
  </diagram>
</mxfile>
